<svg width="590" height="223" viewBox="0 0 590 223" fill="none" xmlns="http://www.w3.org/2000/svg">
<path d="M123.193 222.15C184.53 222.15 234.286 172.431 234.286 111.056C234.286 49.681 184.53 0 123.193 0C61.8551 0 12.0986 49.7188 12.0986 111.094C12.0986 172.469 61.8174 222.188 123.193 222.188V222.15Z" fill="url(#paint0_linear_1426_2215)"/>
<path d="M214.066 188.652C185.057 207.815 181.209 145.459 168.233 110.943C155.633 77.4451 155.068 80.7648 142.279 103.7C129.491 126.674 97.7287 158.436 83.8844 122.184C70.2288 86.5741 67.7013 65.3361 42.9551 96.1934C26.9229 116.111 12.89 145.233 14.0971 163.604C5.53401 147.232 21.6794 110.868 40.6163 87.2531C65.3625 56.3958 73.6238 77.5583 87.2418 113.206C101.124 149.42 127.153 117.733 139.941 94.7599C152.729 71.8244 154.728 66.3546 169.629 98.8717C184.491 131.427 191.81 199.29 214.821 180.051C237.832 160.775 259.07 133.841 255.222 100.154C255.109 99.1358 254.58 96.0802 254.43 95.0994C255.674 98.3813 256.542 107.397 256.618 112.15C257.07 142.178 239.152 172.054 214.104 188.614L214.066 188.652Z" fill="url(#paint1_linear_1426_2215)"/>
<path d="M214.82 180.089C191.81 199.328 184.491 131.502 169.628 98.9096C154.728 66.3925 152.766 71.8623 139.941 94.7978C127.19 117.771 101.124 149.458 87.2417 113.244C73.586 77.6339 65.3624 56.4336 40.6162 87.291C21.6794 110.905 5.53396 147.27 14.097 163.642C16.5113 168.32 20.9626 171.375 27.9036 172.017C27.9036 172.017 22.5093 173.978 16.4359 172.582C11.6073 171.488 6.36386 168.282 3.11969 160.322C1.04493 155.23 -0.199922 148.1 0.0264153 138.255C1.08266 94.1565 54.5737 26.5194 75.6985 31.0084C83.8467 32.7437 87.6567 42.5516 90.1841 54.472C92.8624 67.2224 94.0318 82.3493 97.4646 92.5344C99.0867 97.4761 101.312 101.286 104.481 103.059C120.136 111.811 128.473 66.2416 149.334 37.9871C167.856 12.8637 192.639 87.5927 202.07 124.863C202.259 125.504 202.41 126.146 202.598 126.787C203.541 130.672 204.296 134.067 204.899 136.859C205.314 138.971 205.842 140.707 206.408 142.14C214.104 160.7 234.361 146.252 242.698 116.715C245.602 106.416 245.866 98.3815 245.074 92.4967C244.358 87.1778 241.792 77.1812 234.474 75.7478C234.474 75.7478 250.355 75.7478 254.769 97.1366C254.958 98.0797 255.071 99.1359 255.184 100.154C259.032 133.841 237.794 160.775 214.783 180.052L214.82 180.089Z" fill="url(#paint2_linear_1426_2215)"/>
<path d="M585.531 174.934V116.492L589.752 115.924L589.996 116.574V174.934H585.531Z" fill="white"/>
<path d="M555.556 175.746C551.714 175.746 548.304 174.88 545.328 173.148C542.406 171.363 540.106 168.901 538.429 165.762C536.751 162.624 535.913 158.971 535.913 154.804C535.913 150.638 536.751 146.985 538.429 143.846C540.106 140.654 542.406 138.192 545.328 136.46C548.304 134.674 551.714 133.781 555.556 133.781C559.398 133.781 562.78 134.674 565.702 136.46C568.624 138.192 570.924 140.654 572.601 143.846C574.279 146.985 575.117 150.638 575.117 154.804C575.117 158.917 574.279 162.569 572.601 165.762C570.924 168.901 568.624 171.363 565.702 173.148C562.78 174.88 559.398 175.746 555.556 175.746ZM555.556 171.444C558.478 171.444 561.075 170.767 563.348 169.415C565.621 168.008 567.406 166.06 568.705 163.57C570.004 161.027 570.653 158.105 570.653 154.804C570.653 151.395 570.004 148.473 568.705 146.038C567.406 143.549 565.621 141.601 563.348 140.194C561.075 138.787 558.478 138.083 555.556 138.083C552.633 138.083 550.009 138.787 547.682 140.194C545.409 141.601 543.624 143.549 542.325 146.038C541.026 148.473 540.377 151.395 540.377 154.804C540.377 158.105 541.026 161.027 542.325 163.57C543.624 166.06 545.409 168.008 547.682 169.415C550.009 170.767 552.633 171.444 555.556 171.444Z" fill="white"/>
<path d="M510.927 175.746C507.085 175.746 503.675 174.88 500.699 173.148C497.777 171.363 495.477 168.901 493.8 165.762C492.176 162.569 491.365 158.917 491.365 154.804C491.365 150.638 492.176 146.985 493.8 143.846C495.477 140.654 497.777 138.192 500.699 136.46C503.675 134.674 507.085 133.781 510.927 133.781C514.065 133.781 516.798 134.35 519.125 135.486C521.506 136.622 523.508 138.165 525.131 140.113C526.755 142.061 527.999 144.279 528.865 146.768L525.212 147.905H524.319C523.237 145.037 521.587 142.683 519.368 140.843C517.15 139.003 514.336 138.083 510.927 138.083C507.842 138.083 505.164 138.814 502.891 140.275C500.672 141.736 498.941 143.711 497.696 146.2C496.451 148.689 495.829 151.557 495.829 154.804C495.829 157.943 496.451 160.784 497.696 163.327C498.941 165.87 500.672 167.872 502.891 169.333C505.164 170.74 507.842 171.444 510.927 171.444C513.308 171.444 515.364 171.038 517.095 170.226C518.881 169.361 520.396 168.197 521.641 166.736C522.94 165.275 523.941 163.598 524.644 161.704H525.537L529.19 162.759C528.27 165.302 526.971 167.575 525.293 169.577C523.616 171.525 521.587 173.04 519.206 174.122C516.879 175.205 514.119 175.746 510.927 175.746Z" fill="white"/>
<path d="M464.637 175.746C460.795 175.746 457.386 174.88 454.41 173.148C451.488 171.363 449.188 168.901 447.51 165.762C445.833 162.624 444.994 158.971 444.994 154.804C444.994 150.638 445.833 146.985 447.51 143.846C449.188 140.654 451.488 138.192 454.41 136.46C457.386 134.674 460.795 133.781 464.637 133.781C468.479 133.781 471.861 134.674 474.783 136.46C477.705 138.192 480.005 140.654 481.683 143.846C483.36 146.985 484.199 150.638 484.199 154.804C484.199 158.917 483.36 162.569 481.683 165.762C480.005 168.901 477.705 171.363 474.783 173.148C471.861 174.88 468.479 175.746 464.637 175.746ZM464.637 171.444C467.559 171.444 470.157 170.767 472.429 169.415C474.702 168.008 476.488 166.06 477.787 163.57C479.085 161.027 479.735 158.105 479.735 154.804C479.735 151.395 479.085 148.473 477.787 146.038C476.488 143.549 474.702 141.601 472.429 140.194C470.157 138.787 467.559 138.083 464.637 138.083C461.715 138.083 459.091 138.787 456.764 140.194C454.491 141.601 452.705 143.549 451.407 146.038C450.108 148.473 449.458 151.395 449.458 154.804C449.458 158.105 450.108 161.027 451.407 163.57C452.705 166.06 454.491 168.008 456.764 169.415C459.091 170.767 461.715 171.444 464.637 171.444Z" fill="white"/>
<path d="M433.733 174.934C430.378 174.934 427.699 173.96 425.697 172.012C423.695 170.01 422.694 167.034 422.694 163.083V124.122H427.158V162.84C427.158 165.708 427.726 167.737 428.863 168.928C429.999 170.064 431.839 170.632 434.382 170.632H438.765L439.171 171.525V174.934H433.733ZM415.794 138.976V134.674H439.171V138.976H415.794Z" fill="white"/>
<path d="M391.87 175.746C388.028 175.746 384.618 174.88 381.642 173.148C378.72 171.363 376.42 168.901 374.743 165.762C373.065 162.624 372.227 158.971 372.227 154.804C372.227 150.638 373.065 146.985 374.743 143.846C376.42 140.654 378.72 138.192 381.642 136.46C384.618 134.674 388.028 133.781 391.87 133.781C395.712 133.781 399.094 134.674 402.016 136.46C404.938 138.192 407.238 140.654 408.915 143.846C410.593 146.985 411.431 150.638 411.431 154.804C411.431 158.917 410.593 162.569 408.915 165.762C407.238 168.901 404.938 171.363 402.016 173.148C399.094 174.88 395.712 175.746 391.87 175.746ZM391.87 171.444C394.792 171.444 397.389 170.767 399.662 169.415C401.935 168.008 403.72 166.06 405.019 163.57C406.318 161.027 406.967 158.105 406.967 154.804C406.967 151.395 406.318 148.473 405.019 146.038C403.72 143.549 401.935 141.601 399.662 140.194C397.389 138.787 394.792 138.083 391.87 138.083C388.947 138.083 386.323 138.787 383.996 140.194C381.723 141.601 379.938 143.549 378.639 146.038C377.34 148.473 376.691 151.395 376.691 154.804C376.691 158.105 377.34 161.027 378.639 163.57C379.938 166.06 381.723 168.008 383.996 169.415C386.323 170.767 388.947 171.444 391.87 171.444Z" fill="white"/>
<path d="M348.513 174.934V134.674H352.896V145.632L351.354 144.902C352.328 141.601 354.114 139.084 356.711 137.353C359.309 135.567 362.204 134.674 365.396 134.674H369.293V138.976H364.828C362.555 138.976 360.526 139.517 358.741 140.6C356.955 141.682 355.548 143.197 354.52 145.145C353.492 147.039 352.977 149.312 352.977 151.963V174.934H348.513Z" fill="white"/>
<path d="M334.767 134.593C334.767 130.859 333.657 127.91 331.439 125.746C329.274 123.581 326.217 122.499 322.267 122.499H305.708V118.116H322.267C327.57 118.116 331.763 119.631 334.848 122.661C337.932 125.637 339.475 129.615 339.475 134.593H334.767ZM303.192 174.934V118.116H307.656V174.934H303.192ZM305.708 150.989V146.687H322.267C326.217 146.687 329.274 145.605 331.439 143.44C333.657 141.222 334.767 138.273 334.767 134.593H339.475C339.475 139.517 337.932 143.495 334.848 146.525C331.763 149.501 327.57 150.989 322.267 150.989H305.708Z" fill="white"/>
<path d="M537.296 103.261V62.2702H546.063V72.741L543.709 72.5786C544.575 70.1977 545.819 68.1685 547.443 66.491C549.066 64.7593 550.96 63.4336 553.124 62.5137C555.289 61.5396 557.643 61.0526 560.186 61.0526C563.108 61.0526 565.733 61.702 568.06 63.0007C570.44 64.2453 572.307 66.1122 573.66 68.6014C575.067 71.0364 575.771 74.0938 575.771 77.7735V103.261H566.436V80.6144C566.436 78.017 566.084 75.9066 565.381 74.2832C564.677 72.6598 563.649 71.4693 562.297 70.7118C560.998 69.9542 559.483 69.5754 557.751 69.5754C556.128 69.5754 554.45 69.9812 552.719 70.7929C551.041 71.6046 549.607 72.9574 548.417 74.8514C547.226 76.7453 546.631 79.3157 546.631 82.5625V103.261H537.296Z" fill="white"/>
<path d="M505.094 104.478C502.28 104.478 499.764 103.937 497.545 102.855C495.38 101.773 493.676 100.257 492.431 98.3093C491.187 96.3612 490.564 94.1426 490.564 91.6534C490.564 87.8114 491.89 84.754 494.542 82.4813C497.193 80.1544 501.008 78.8016 505.987 78.4228L521.896 77.1241V84.8352L507.366 86.0527C504.769 86.2692 502.902 86.8103 501.766 87.6761C500.629 88.5419 500.061 89.7054 500.061 91.1664C500.061 92.6274 500.711 93.8179 502.009 94.7378C503.308 95.6578 504.958 96.1177 506.961 96.1177C509.071 96.1177 510.965 95.6037 512.642 94.5755C514.374 93.4933 515.754 92.1134 516.782 90.4359C517.81 88.7584 518.324 86.9456 518.324 84.9975V78.2605C518.324 75.6631 517.459 73.5256 515.727 71.8481C513.995 70.1165 511.723 69.2507 508.909 69.2507C506.528 69.2507 504.553 69.8459 502.983 71.0364C501.468 72.1728 500.494 73.6068 500.061 75.3384H499.168L491.214 73.3903C492.188 69.7107 494.217 66.7345 497.301 64.4617C500.44 62.189 504.336 61.0526 508.99 61.0526C514.78 61.0526 519.298 62.7301 522.545 66.0851C525.792 69.386 527.415 74.0667 527.415 80.1274V103.261H519.136V91.3287L522.464 91.8158C521.815 94.1426 520.651 96.2801 518.974 98.2281C517.296 100.122 515.267 101.637 512.886 102.774C510.559 103.91 507.962 104.478 505.094 104.478Z" fill="white"/>
<path d="M464.076 119.495C458.557 119.495 454.228 118.412 451.089 116.248C447.951 114.137 446.381 111.188 446.381 107.4C446.381 104.965 447.031 102.828 448.329 100.988C449.682 99.1482 451.603 97.7142 454.092 96.686L458.638 100.582C457.502 101.069 456.609 101.8 455.959 102.774C455.364 103.748 455.066 104.803 455.066 105.939C455.066 107.509 455.662 108.888 456.852 110.079C458.097 111.269 460.099 111.865 462.859 111.865H468.541C471.463 111.865 473.654 111.432 475.115 110.566C476.576 109.754 477.307 108.537 477.307 106.913C477.307 105.615 476.766 104.614 475.683 103.91C474.655 103.207 473.221 102.855 471.381 102.855H461.235C458.854 102.855 456.717 102.449 454.823 101.637C452.983 100.826 451.522 99.7164 450.44 98.3094C449.358 96.8484 448.816 95.1979 448.816 93.3581C448.816 91.3018 449.439 89.489 450.683 87.9198C451.982 86.2964 453.822 84.9977 456.203 84.0236L461.235 88.0821C459.937 88.1903 458.936 88.6503 458.232 89.462C457.529 90.2196 457.177 91.0312 457.177 91.8971C457.177 92.9793 457.61 93.8451 458.476 94.4945C459.341 95.0897 460.667 95.3873 462.453 95.3873H472.356C476.468 95.3873 479.742 96.4155 482.177 98.4718C484.666 100.528 485.911 103.261 485.911 106.67C485.911 110.566 484.342 113.677 481.203 116.004C478.064 118.331 473.817 119.495 468.459 119.495H464.076ZM466.511 90.1925C463.156 90.1925 460.207 89.5702 457.664 88.3256C455.121 87.081 453.118 85.3765 451.657 83.2119C450.25 80.9933 449.547 78.45 449.547 75.582C449.547 72.7141 450.25 70.1978 451.657 68.0333C453.118 65.8688 455.121 64.1642 457.664 62.9196C460.207 61.675 463.156 61.0527 466.511 61.0527C469.866 61.0527 472.788 61.675 475.278 62.9196C477.821 64.1642 479.796 65.8688 481.203 68.0333C482.664 70.1978 483.395 72.7141 483.395 75.582C483.395 78.45 482.664 80.9933 481.203 83.2119C479.796 85.3765 477.821 87.081 475.278 88.3256C472.788 89.5702 469.866 90.1925 466.511 90.1925ZM466.511 82.7249C468.946 82.7249 470.922 82.0756 472.437 80.7769C473.952 79.424 474.709 77.6924 474.709 75.582C474.709 73.4716 473.952 71.7671 472.437 70.4684C470.922 69.1697 468.946 68.5203 466.511 68.5203C464.022 68.5203 462.02 69.1697 460.505 70.4684C459.044 71.7671 458.313 73.4716 458.313 75.582C458.313 77.6924 459.044 79.424 460.505 80.7769C462.02 82.0756 464.022 82.7249 466.511 82.7249ZM478.362 68.2768L472.518 65.4359C472.518 63.0549 472.978 60.9445 473.898 59.1047C474.818 57.2648 476.062 55.8309 477.632 54.8027C479.255 53.7205 481.068 53.1793 483.07 53.1793C483.665 53.1793 484.233 53.2064 484.774 53.2605C485.316 53.2605 485.721 53.3146 485.992 53.4228V61.2962L485.586 62.1079C485.045 61.9456 484.369 61.8644 483.557 61.8644C481.825 61.8644 480.527 62.4597 479.661 63.6502C478.795 64.8406 478.362 66.3829 478.362 68.2768Z" fill="white"/>
<path d="M421.329 103.261V62.2701H430.095V72.741L427.741 72.5786C428.877 69.386 430.771 66.8697 433.423 65.0299C436.074 63.1901 439.105 62.2701 442.514 62.2701H446.491V70.6306H441.134C439.024 70.6306 437.184 71.1176 435.614 72.0916C434.045 73.0115 432.828 74.3373 431.962 76.0689C431.096 77.8005 430.663 79.8568 430.663 82.2378V103.261H421.329Z" fill="white"/>
<path d="M392.204 104.478C388.091 104.478 384.466 103.558 381.327 101.718C378.189 99.8786 375.727 97.3353 373.941 94.0885C372.155 90.7876 371.262 86.9997 371.262 82.7248C371.262 78.504 372.155 74.7702 373.941 71.5234C375.727 68.2226 378.189 65.6522 381.327 63.8124C384.466 61.9725 388.091 61.0526 392.204 61.0526C396.371 61.0526 400.023 61.9725 403.162 63.8124C406.3 65.6522 408.762 68.2226 410.548 71.5234C412.334 74.7702 413.227 78.504 413.227 82.7248C413.227 86.9997 412.334 90.7876 410.548 94.0885C408.762 97.3353 406.3 99.8786 403.162 101.718C400.023 103.558 396.371 104.478 392.204 104.478ZM392.204 96.0366C394.585 96.0366 396.641 95.4954 398.373 94.4132C400.104 93.3309 401.457 91.7887 402.431 89.7865C403.405 87.7844 403.892 85.4575 403.892 82.806C403.892 80.0462 403.405 77.6923 402.431 75.7442C401.457 73.7421 400.104 72.1999 398.373 71.1176C396.641 70.0353 394.585 69.4942 392.204 69.4942C389.877 69.4942 387.848 70.0353 386.116 71.1176C384.385 72.1999 383.032 73.7421 382.058 75.7442C381.084 77.6923 380.597 80.0192 380.597 82.7248C380.597 85.4304 381.084 87.7844 382.058 89.7865C383.032 91.7887 384.385 93.3309 386.116 94.4132C387.848 95.4954 389.877 96.0366 392.204 96.0366Z" fill="white"/>
<path d="M327.543 103.261L327.624 101.556L351.163 46.4421H360.173V48.1467L336.634 103.261H327.543ZM301.894 103.261V46.4421H311.228V103.261H301.894ZM327.624 103.261L304.004 48.1467V46.4421H313.095L336.634 101.556V103.261H327.624ZM352.949 103.261V46.4421H362.283V103.261H352.949Z" fill="white"/>
<defs>
<linearGradient id="paint0_linear_1426_2215" x1="67.6267" y1="207.287" x2="178.758" y2="14.8628" gradientUnits="userSpaceOnUse">
<stop stop-color="#7433F5" stop-opacity="0.94"/>
<stop offset="0.04" stop-color="#6845F6" stop-opacity="0.74"/>
<stop offset="0.08" stop-color="#5D55F6" stop-opacity="0.57"/>
<stop offset="0.12" stop-color="#5464F7" stop-opacity="0.41"/>
<stop offset="0.16" stop-color="#4C70F7" stop-opacity="0.28"/>
<stop offset="0.2" stop-color="#4579F7" stop-opacity="0.18"/>
<stop offset="0.25" stop-color="#4081F8" stop-opacity="0.1"/>
<stop offset="0.31" stop-color="#3D86F8" stop-opacity="0.04"/>
<stop offset="0.38" stop-color="#3B89F8" stop-opacity="0"/>
<stop offset="0.5" stop-color="#3A8AF8" stop-opacity="0"/>
<stop offset="0.63" stop-color="#398BF8" stop-opacity="0"/>
<stop offset="0.69" stop-color="#388EF8" stop-opacity="0.04"/>
<stop offset="0.75" stop-color="#3492F8" stop-opacity="0.1"/>
<stop offset="0.8" stop-color="#3099F8" stop-opacity="0.17"/>
<stop offset="0.84" stop-color="#2AA2F9" stop-opacity="0.28"/>
<stop offset="0.88" stop-color="#23ACF9" stop-opacity="0.4"/>
<stop offset="0.92" stop-color="#1BB9F9" stop-opacity="0.55"/>
<stop offset="0.95" stop-color="#11C8F9" stop-opacity="0.72"/>
<stop offset="0.99" stop-color="#06D8FA" stop-opacity="0.91"/>
<stop offset="1" stop-color="#01E0FA"/>
</linearGradient>
<linearGradient id="paint1_linear_1426_2215" x1="11.7583" y1="132.294" x2="256.58" y2="132.294" gradientUnits="userSpaceOnUse">
<stop stop-color="#02AD9B"/>
<stop offset="0.28" stop-color="#087FB4"/>
<stop offset="0.74" stop-color="#4700FF"/>
<stop offset="1" stop-color="#412AB1"/>
</linearGradient>
<linearGradient id="paint2_linear_1426_2215" x1="253.562" y1="108.718" x2="3.27059" y2="105.209" gradientUnits="userSpaceOnUse">
<stop stop-color="#782DF5"/>
<stop offset="0.28" stop-color="#009DFF"/>
<stop offset="0.74" stop-color="#01E0FA"/>
<stop offset="1" stop-color="#00FF9E"/>
</linearGradient>
</defs>
</svg>
