<svg width="260" height="260" viewBox="0 0 260 260" fill="none" xmlns="http://www.w3.org/2000/svg">
<path d="M125.193 245.15C186.53 245.15 236.286 195.431 236.286 134.056C236.286 72.681 186.53 23 125.193 23C63.8551 23 14.0986 72.7188 14.0986 134.094C14.0986 195.469 63.8174 245.188 125.193 245.188V245.15Z" fill="url(#paint0_linear_1_40)"/>
<path d="M216.066 211.652C187.057 230.815 183.209 168.459 170.233 133.943C157.633 100.445 157.068 103.765 144.279 126.7C131.491 149.674 99.7287 181.436 85.8844 145.184C72.2288 109.574 69.7013 88.3361 44.9551 119.193C28.9229 139.111 14.89 168.233 16.0971 186.604C7.53401 170.232 23.6794 133.868 42.6163 110.253C67.3625 79.3958 75.6238 100.558 89.2418 136.206C103.124 172.42 129.153 140.733 141.941 117.76C154.729 94.8244 156.728 89.3546 171.629 121.872C186.491 154.427 193.81 222.29 216.821 203.051C239.832 183.775 261.07 156.841 257.222 123.154C257.109 122.136 256.58 119.08 256.43 118.099C257.674 121.381 258.542 130.397 258.618 135.15C259.07 165.178 241.152 195.054 216.104 211.614L216.066 211.652Z" fill="url(#paint1_linear_1_40)"/>
<path d="M216.82 203.089C193.81 222.328 186.491 154.502 171.628 121.91C156.728 89.3925 154.766 94.8623 141.941 117.798C129.19 140.771 103.124 172.458 89.2417 136.244C75.586 100.634 67.3624 79.4336 42.6162 110.291C23.6794 133.905 7.53396 170.27 16.097 186.642C18.5113 191.32 22.9626 194.375 29.9036 195.017C29.9036 195.017 24.5093 196.978 18.4359 195.582C13.6073 194.488 8.36386 191.282 5.11969 183.322C3.04493 178.23 1.80008 171.1 2.02642 161.255C3.08266 117.157 56.5737 49.5194 77.6985 54.0084C85.8467 55.7437 89.6567 65.5516 92.1841 77.472C94.8624 90.2224 96.0318 105.349 99.4646 115.534C101.087 120.476 103.312 124.286 106.481 126.059C122.136 134.811 130.473 89.2416 151.334 60.9871C169.856 35.8637 194.639 110.593 204.07 147.863C204.259 148.504 204.41 149.146 204.598 149.787C205.541 153.672 206.296 157.067 206.899 159.859C207.314 161.971 207.842 163.707 208.408 165.14C216.104 183.7 236.361 169.252 244.698 139.715C247.602 129.416 247.866 121.382 247.074 115.497C246.358 110.178 243.792 100.181 236.474 98.7478C236.474 98.7478 252.355 98.7478 256.769 120.137C256.958 121.08 257.071 122.136 257.184 123.154C261.032 156.841 239.794 183.775 216.783 203.052L216.82 203.089Z" fill="url(#paint2_linear_1_40)"/>
<defs>
<linearGradient id="paint0_linear_1_40" x1="69.6267" y1="230.287" x2="180.758" y2="37.8628" gradientUnits="userSpaceOnUse">
<stop stop-color="#7433F5" stop-opacity="0.94"/>
<stop offset="0.04" stop-color="#6845F6" stop-opacity="0.74"/>
<stop offset="0.08" stop-color="#5D55F6" stop-opacity="0.57"/>
<stop offset="0.12" stop-color="#5464F7" stop-opacity="0.41"/>
<stop offset="0.16" stop-color="#4C70F7" stop-opacity="0.28"/>
<stop offset="0.2" stop-color="#4579F7" stop-opacity="0.18"/>
<stop offset="0.25" stop-color="#4081F8" stop-opacity="0.1"/>
<stop offset="0.31" stop-color="#3D86F8" stop-opacity="0.04"/>
<stop offset="0.38" stop-color="#3B89F8" stop-opacity="0"/>
<stop offset="0.5" stop-color="#3A8AF8" stop-opacity="0"/>
<stop offset="0.63" stop-color="#398BF8" stop-opacity="0"/>
<stop offset="0.69" stop-color="#388EF8" stop-opacity="0.04"/>
<stop offset="0.75" stop-color="#3492F8" stop-opacity="0.1"/>
<stop offset="0.8" stop-color="#3099F8" stop-opacity="0.17"/>
<stop offset="0.84" stop-color="#2AA2F9" stop-opacity="0.28"/>
<stop offset="0.88" stop-color="#23ACF9" stop-opacity="0.4"/>
<stop offset="0.92" stop-color="#1BB9F9" stop-opacity="0.55"/>
<stop offset="0.95" stop-color="#11C8F9" stop-opacity="0.72"/>
<stop offset="0.99" stop-color="#06D8FA" stop-opacity="0.91"/>
<stop offset="1" stop-color="#01E0FA"/>
</linearGradient>
<linearGradient id="paint1_linear_1_40" x1="13.7583" y1="155.294" x2="258.58" y2="155.294" gradientUnits="userSpaceOnUse">
<stop stop-color="#02AD9B"/>
<stop offset="0.28" stop-color="#087FB4"/>
<stop offset="0.74" stop-color="#4700FF"/>
<stop offset="1" stop-color="#412AB1"/>
</linearGradient>
<linearGradient id="paint2_linear_1_40" x1="255.562" y1="131.718" x2="5.27058" y2="128.209" gradientUnits="userSpaceOnUse">
<stop stop-color="#782DF5"/>
<stop offset="0.28" stop-color="#009DFF"/>
<stop offset="0.74" stop-color="#01E0FA"/>
<stop offset="1" stop-color="#00FF9E"/>
</linearGradient>
</defs>
</svg>
